<svg width="67" height="40" viewBox="0 0 67 40" fill="none" xmlns="http://www.w3.org/2000/svg">
<path d="M21.9999 20C21.9999 24.9706 17.9704 29 12.9999 29C11.1523 29.0061 9.34868 28.4363 7.83985 27.37C7.7193 27.2831 7.64261 27.148 7.62985 27C7.61792 26.8559 7.66898 26.7136 7.76985 26.61L8.48985 25.88C8.65887 25.7127 8.9223 25.6876 9.11985 25.82C10.2661 26.5925 11.6176 27.0036 12.9999 27C16.8658 27 19.9999 23.866 19.9999 20C19.9999 16.134 16.8658 13 12.9999 13C9.13386 13 5.99985 16.134 5.99985 20H8.35985C8.49544 19.998 8.62578 20.0523 8.71985 20.15L8.91985 20.35C9.01451 20.4439 9.06775 20.5717 9.06775 20.705C9.06775 20.8383 9.01451 20.9661 8.91985 21.06L5.38985 24.6C5.19204 24.7918 4.87767 24.7918 4.67985 24.6L1.14985 21.06C1.0552 20.9661 1.00195 20.8383 1.00195 20.705C1.00195 20.5717 1.0552 20.4439 1.14985 20.35L1.34985 20.15C1.44393 20.0523 1.57427 19.998 1.70985 20H3.99985C3.99985 15.0294 8.02929 11 12.9999 11C17.9704 11 21.9999 15.0294 21.9999 20Z" fill="#0052EA"/>
<path d="M29.1186 25V14.8182H32.7479C33.5367 14.8182 34.1913 14.9541 34.7116 15.2259C35.2353 15.4976 35.6264 15.8738 35.8849 16.3544C36.1435 16.8317 36.2727 17.3835 36.2727 18.0099C36.2727 18.633 36.1418 19.1816 35.88 19.6555C35.6214 20.1262 35.2304 20.4924 34.7067 20.7543C34.1863 21.0161 33.5317 21.147 32.7429 21.147H29.9936V19.8246H32.6037C33.1009 19.8246 33.5052 19.7533 33.8168 19.6108C34.1316 19.4683 34.362 19.2611 34.5078 18.9893C34.6536 18.7176 34.7266 18.3911 34.7266 18.0099C34.7266 17.6255 34.652 17.2924 34.5028 17.0107C34.357 16.7289 34.1267 16.5135 33.8118 16.3643C33.5002 16.2119 33.0909 16.1357 32.5838 16.1357H30.6548V25H29.1186ZM34.1449 20.4062L36.6605 25H34.9105L32.4446 20.4062H34.1449ZM41.2182 25.1541C40.4658 25.1541 39.8179 24.9934 39.2743 24.6719C38.7341 24.3471 38.3165 23.8913 38.0215 23.3047C37.7298 22.7147 37.584 22.0237 37.584 21.2315C37.584 20.4493 37.7298 19.7599 38.0215 19.1634C38.3165 18.5668 38.7275 18.1011 39.2544 17.7663C39.7847 17.4316 40.4045 17.2642 41.1138 17.2642C41.5447 17.2642 41.9623 17.3355 42.3667 17.478C42.771 17.6205 43.1339 17.8442 43.4554 18.1491C43.7769 18.4541 44.0305 18.8501 44.2161 19.3374C44.4017 19.8213 44.4945 20.4096 44.4945 21.1023V21.6293H38.4242V20.5156H43.0378C43.0378 20.1245 42.9583 19.7782 42.7992 19.4766C42.6401 19.1716 42.4164 18.9313 42.128 18.7557C41.843 18.58 41.5082 18.4922 41.1238 18.4922C40.7061 18.4922 40.3416 18.5949 40.03 18.8004C39.7218 19.0026 39.4831 19.2678 39.3141 19.5959C39.1484 19.9207 39.0655 20.2737 39.0655 20.6548V21.5249C39.0655 22.0353 39.155 22.4695 39.334 22.8274C39.5163 23.1854 39.7698 23.4588 40.0946 23.6477C40.4194 23.8333 40.7989 23.9261 41.2331 23.9261C41.5149 23.9261 41.7717 23.8864 42.0037 23.8068C42.2357 23.724 42.4363 23.6013 42.6053 23.4389C42.7743 23.2765 42.9036 23.076 42.9931 22.8374L44.4 23.0909C44.2873 23.5052 44.0852 23.8681 43.7935 24.1797C43.5051 24.4879 43.1422 24.7282 42.7047 24.9006C42.2705 25.0696 41.775 25.1541 41.2182 25.1541ZM51.8661 19.228L50.5188 19.4666C50.4625 19.2943 50.373 19.1302 50.2504 18.9744C50.131 18.8187 49.9686 18.6911 49.7631 18.5916C49.5576 18.4922 49.3008 18.4425 48.9925 18.4425C48.5716 18.4425 48.2203 18.5369 47.9386 18.7259C47.6568 18.9115 47.516 19.1518 47.516 19.4467C47.516 19.7019 47.6104 19.9074 47.7994 20.0632C47.9883 20.219 48.2932 20.3466 48.7141 20.446L49.9272 20.7244C50.6299 20.8868 51.1535 21.1371 51.4982 21.4751C51.8429 21.8132 52.0153 22.2524 52.0153 22.7926C52.0153 23.25 51.8827 23.6577 51.6175 24.0156C51.3557 24.3703 50.9895 24.6487 50.5188 24.8509C50.0515 25.053 49.5096 25.1541 48.8931 25.1541C48.038 25.1541 47.3403 24.9718 46.8001 24.6072C46.2598 24.2393 45.9284 23.7173 45.8058 23.0412L47.2425 22.8224C47.332 23.197 47.516 23.4804 47.7944 23.6726C48.0728 23.8615 48.4357 23.956 48.8832 23.956C49.3704 23.956 49.7598 23.8549 50.0515 23.6527C50.3432 23.4472 50.489 23.197 50.489 22.902C50.489 22.6634 50.3995 22.4628 50.2205 22.3004C50.0449 22.138 49.7747 22.0154 49.4102 21.9325L48.1175 21.6491C47.4049 21.4867 46.878 21.2282 46.5366 20.8736C46.1985 20.5189 46.0295 20.0698 46.0295 19.5263C46.0295 19.0755 46.1554 18.6811 46.4073 18.343C46.6592 18.005 47.0072 17.7415 47.4513 17.5526C47.8955 17.3603 48.4042 17.2642 48.9776 17.2642C49.8029 17.2642 50.4525 17.4432 50.9265 17.8011C51.4005 18.1558 51.7137 18.6314 51.8661 19.228ZM56.9409 25.1541C56.1885 25.1541 55.5405 24.9934 54.997 24.6719C54.4567 24.3471 54.0391 23.8913 53.7441 23.3047C53.4525 22.7147 53.3066 22.0237 53.3066 21.2315C53.3066 20.4493 53.4525 19.7599 53.7441 19.1634C54.0391 18.5668 54.4501 18.1011 54.9771 17.7663C55.5074 17.4316 56.1272 17.2642 56.8365 17.2642C57.2673 17.2642 57.685 17.3355 58.0893 17.478C58.4937 17.6205 58.8566 17.8442 59.1781 18.1491C59.4996 18.4541 59.7531 18.8501 59.9387 19.3374C60.1243 19.8213 60.2172 20.4096 60.2172 21.1023V21.6293H54.1468V20.5156H58.7605C58.7605 20.1245 58.6809 19.7782 58.5218 19.4766C58.3627 19.1716 58.139 18.9313 57.8507 18.7557C57.5656 18.58 57.2309 18.4922 56.8464 18.4922C56.4288 18.4922 56.0642 18.5949 55.7527 18.8004C55.4444 19.0026 55.2058 19.2678 55.0368 19.5959C54.871 19.9207 54.7882 20.2737 54.7882 20.6548V21.5249C54.7882 22.0353 54.8777 22.4695 55.0566 22.8274C55.2389 23.1854 55.4925 23.4588 55.8173 23.6477C56.1421 23.8333 56.5216 23.9261 56.9558 23.9261C57.2375 23.9261 57.4944 23.8864 57.7264 23.8068C57.9584 23.724 58.1589 23.6013 58.3279 23.4389C58.497 23.2765 58.6262 23.076 58.7157 22.8374L60.1227 23.0909C60.01 23.5052 59.8078 23.8681 59.5162 24.1797C59.2278 24.4879 58.8649 24.7282 58.4274 24.9006C57.9932 25.0696 57.4977 25.1541 56.9409 25.1541ZM65.4311 17.3636V18.5568H61.2599V17.3636H65.4311ZM62.3786 15.5341H63.8651V22.7578C63.8651 23.0462 63.9081 23.2633 63.9943 23.4091C64.0805 23.5516 64.1915 23.6494 64.3274 23.7024C64.4666 23.7521 64.6174 23.777 64.7798 23.777C64.8991 23.777 65.0036 23.7687 65.093 23.7521C65.1825 23.7356 65.2521 23.7223 65.3018 23.7124L65.5703 24.9403C65.4841 24.9735 65.3615 25.0066 65.2024 25.0398C65.0433 25.0762 64.8445 25.0961 64.6058 25.0994C64.2147 25.1061 63.8501 25.0365 63.5121 24.8906C63.174 24.7448 62.9006 24.5194 62.6918 24.2145C62.483 23.9096 62.3786 23.5268 62.3786 23.0661V15.5341Z" fill="#0052EA"/>
</svg>
