<svg width="162" height="40" viewBox="0 0 162 40" fill="none" xmlns="http://www.w3.org/2000/svg">
<g clip-path="url(#clip0_1304_204)">
<path d="M19 19.5V20.5C19 20.6326 18.9473 20.7598 18.8536 20.8536C18.7598 20.9473 18.6326 21 18.5 21H13V26.5C13 26.6326 12.9473 26.7598 12.8536 26.8536C12.7598 26.9473 12.6326 27 12.5 27H11.5C11.3674 27 11.2402 26.9473 11.1464 26.8536C11.0527 26.7598 11 26.6326 11 26.5V21H5.5C5.36739 21 5.24021 20.9473 5.14645 20.8536C5.05268 20.7598 5 20.6326 5 20.5V19.5C5 19.3674 5.05268 19.2402 5.14645 19.1464C5.24021 19.0527 5.36739 19 5.5 19H11V13.5C11 13.3674 11.0527 13.2402 11.1464 13.1464C11.2402 13.0527 11.3674 13 11.5 13H12.5C12.6326 13 12.7598 13.0527 12.8536 13.1464C12.9473 13.2402 13 13.3674 13 13.5V19H18.5C18.6326 19 18.7598 19.0527 18.8536 19.1464C18.9473 19.2402 19 19.3674 19 19.5Z" fill="#0052EA"/>
</g>
<path d="M29.9787 25H28.348L32.0121 14.8182H33.7869L37.451 25H35.8203L32.9418 16.6676H32.8622L29.9787 25ZM30.2521 21.0128H35.5419V22.3054H30.2521V21.0128ZM41.5376 25.1491C40.9212 25.1491 40.371 24.9917 39.8871 24.6768C39.4065 24.3587 39.0286 23.9062 38.7536 23.3196C38.4818 22.7296 38.3459 22.022 38.3459 21.1967C38.3459 20.3714 38.4834 19.6655 38.7585 19.0788C39.0369 18.4922 39.4181 18.0431 39.902 17.7315C40.3859 17.42 40.9344 17.2642 41.5476 17.2642C42.0215 17.2642 42.4027 17.3438 42.6911 17.5028C42.9827 17.6586 43.2081 17.8409 43.3672 18.0497C43.5296 18.2585 43.6555 18.4425 43.745 18.6016H43.8345V14.8182H45.321V25H43.8693V23.8118H43.745C43.6555 23.9742 43.5263 24.1598 43.3572 24.3686C43.1915 24.5774 42.9628 24.7597 42.6712 24.9155C42.3795 25.0713 42.0017 25.1491 41.5376 25.1491ZM41.8658 23.8814C42.2933 23.8814 42.6546 23.7687 42.9496 23.5433C43.2479 23.3146 43.4732 22.9981 43.6257 22.5938C43.7815 22.1894 43.8594 21.7187 43.8594 21.1818C43.8594 20.6515 43.7831 20.1875 43.6307 19.7898C43.4782 19.392 43.2545 19.0821 42.9595 18.8601C42.6645 18.638 42.3 18.527 41.8658 18.527C41.4183 18.527 41.0455 18.643 40.7472 18.875C40.4489 19.107 40.2235 19.4235 40.071 19.8246C39.9219 20.2256 39.8473 20.678 39.8473 21.1818C39.8473 21.6922 39.9235 22.1513 40.076 22.5589C40.2285 22.9666 40.4538 23.2898 40.7521 23.5284C41.0537 23.7637 41.425 23.8814 41.8658 23.8814ZM50.3013 25.1491C49.6848 25.1491 49.1346 24.9917 48.6507 24.6768C48.1702 24.3587 47.7923 23.9062 47.5172 23.3196C47.2454 22.7296 47.1096 22.022 47.1096 21.1967C47.1096 20.3714 47.2471 19.6655 47.5222 19.0788C47.8006 18.4922 48.1818 18.0431 48.6657 17.7315C49.1496 17.42 49.6981 17.2642 50.3113 17.2642C50.7852 17.2642 51.1664 17.3438 51.4547 17.5028C51.7464 17.6586 51.9718 17.8409 52.1309 18.0497C52.2933 18.2585 52.4192 18.4425 52.5087 18.6016H52.5982V14.8182H54.0847V25H52.633V23.8118H52.5087C52.4192 23.9742 52.29 24.1598 52.1209 24.3686C51.9552 24.5774 51.7265 24.7597 51.4348 24.9155C51.1432 25.0713 50.7653 25.1491 50.3013 25.1491ZM50.6294 23.8814C51.057 23.8814 51.4183 23.7687 51.7132 23.5433C52.0115 23.3146 52.2369 22.9981 52.3894 22.5938C52.5452 22.1894 52.623 21.7187 52.623 21.1818C52.623 20.6515 52.5468 20.1875 52.3944 19.7898C52.2419 19.392 52.0182 19.0821 51.7232 18.8601C51.4282 18.638 51.0636 18.527 50.6294 18.527C50.182 18.527 49.8091 18.643 49.5108 18.875C49.2125 19.107 48.9872 19.4235 48.8347 19.8246C48.6855 20.2256 48.611 20.678 48.611 21.1818C48.611 21.6922 48.6872 22.1513 48.8397 22.5589C48.9921 22.9666 49.2175 23.2898 49.5158 23.5284C49.8174 23.7637 50.1886 23.8814 50.6294 23.8814ZM68.2488 14.8182V25H66.8368L61.6614 17.5327H61.5669V25H60.0307V14.8182H61.4526L66.633 22.2955H66.7275V14.8182H68.2488ZM73.6616 25.1541C72.9092 25.1541 72.2612 24.9934 71.7177 24.6719C71.1774 24.3471 70.7598 23.8913 70.4648 23.3047C70.1732 22.7147 70.0273 22.0237 70.0273 21.2315C70.0273 20.4493 70.1732 19.7599 70.4648 19.1634C70.7598 18.5668 71.1708 18.1011 71.6978 17.7663C72.2281 17.4316 72.8479 17.2642 73.5572 17.2642C73.988 17.2642 74.4057 17.3355 74.81 17.478C75.2144 17.6205 75.5773 17.8442 75.8988 18.1491C76.2203 18.4541 76.4738 18.8501 76.6594 19.3374C76.8451 19.8213 76.9379 20.4096 76.9379 21.1023V21.6293H70.8675V20.5156H75.4812C75.4812 20.1245 75.4016 19.7782 75.2425 19.4766C75.0835 19.1716 74.8597 18.9313 74.5714 18.7557C74.2863 18.58 73.9516 18.4922 73.5671 18.4922C73.1495 18.4922 72.7849 18.5949 72.4734 18.8004C72.1651 19.0026 71.9265 19.2678 71.7575 19.5959C71.5917 19.9207 71.5089 20.2737 71.5089 20.6548V21.5249C71.5089 22.0353 71.5984 22.4695 71.7773 22.8274C71.9596 23.1854 72.2132 23.4588 72.538 23.6477C72.8628 23.8333 73.2423 23.9261 73.6765 23.9261C73.9582 23.9261 74.2151 23.8864 74.4471 23.8068C74.6791 23.724 74.8796 23.6013 75.0487 23.4389C75.2177 23.2765 75.3469 23.076 75.4364 22.8374L76.8434 23.0909C76.7307 23.5052 76.5285 23.8681 76.2369 24.1797C75.9485 24.4879 75.5856 24.7282 75.1481 24.9006C74.7139 25.0696 74.2184 25.1541 73.6616 25.1541ZM80.229 25L77.9819 17.3636H79.5181L81.0146 22.9716H81.0891L82.5906 17.3636H84.1268L85.6183 22.9467H85.6928L87.1793 17.3636H88.7156L86.4734 25H84.957L83.4059 19.4865H83.2915L81.7404 25H80.229ZM94.8107 25H93.18L96.8441 14.8182H98.619L102.283 25H100.652L97.7738 16.6676H97.6942L94.8107 25ZM95.0842 21.0128H100.374V22.3054H95.0842V21.0128ZM105.121 14.8182V25H103.634V14.8182H105.121ZM108.607 14.8182V25H107.12V14.8182H108.607ZM113.823 25.1541C113.107 25.1541 112.483 24.9901 111.949 24.6619C111.415 24.3338 111.001 23.8748 110.706 23.2848C110.411 22.6948 110.264 22.0054 110.264 21.2166C110.264 20.4245 110.411 19.7318 110.706 19.1385C111.001 18.5452 111.415 18.0845 111.949 17.7564C112.483 17.4283 113.107 17.2642 113.823 17.2642C114.539 17.2642 115.164 17.4283 115.698 17.7564C116.231 18.0845 116.646 18.5452 116.941 19.1385C117.235 19.7318 117.383 20.4245 117.383 21.2166C117.383 22.0054 117.235 22.6948 116.941 23.2848C116.646 23.8748 116.231 24.3338 115.698 24.6619C115.164 24.9901 114.539 25.1541 113.823 25.1541ZM113.828 23.9062C114.292 23.9062 114.677 23.7836 114.982 23.5384C115.287 23.2931 115.512 22.9666 115.658 22.5589C115.807 22.1513 115.882 21.7022 115.882 21.2116C115.882 20.7244 115.807 20.277 115.658 19.8693C115.512 19.4583 115.287 19.1286 114.982 18.88C114.677 18.6314 114.292 18.5071 113.828 18.5071C113.361 18.5071 112.973 18.6314 112.665 18.88C112.36 19.1286 112.133 19.4583 111.984 19.8693C111.838 20.277 111.765 20.7244 111.765 21.2116C111.765 21.7022 111.838 22.1513 111.984 22.5589C112.133 22.9666 112.36 23.2931 112.665 23.5384C112.973 23.7836 113.361 23.9062 113.828 23.9062ZM120.465 25L118.218 17.3636H119.754L121.251 22.9716H121.325L122.827 17.3636H124.363L125.855 22.9467H125.929L127.416 17.3636H128.952L126.71 25H125.193L123.642 19.4865H123.528L121.977 25H120.465ZM132.585 25.169C132.101 25.169 131.663 25.0795 131.272 24.9006C130.881 24.7183 130.571 24.4548 130.343 24.1101C130.117 23.7654 130.005 23.3428 130.005 22.8423C130.005 22.4115 130.087 22.0568 130.253 21.7784C130.419 21.5 130.643 21.2796 130.924 21.1172C131.206 20.9548 131.521 20.8321 131.869 20.7493C132.217 20.6664 132.572 20.6035 132.933 20.5604C133.39 20.5073 133.761 20.4643 134.047 20.4311C134.332 20.3946 134.539 20.3366 134.668 20.2571C134.797 20.1776 134.862 20.0483 134.862 19.8693V19.8345C134.862 19.4003 134.739 19.0639 134.494 18.8253C134.252 18.5866 133.891 18.4673 133.41 18.4673C132.91 18.4673 132.515 18.5784 132.227 18.8004C131.942 19.0192 131.745 19.2628 131.635 19.5312L130.238 19.2131C130.404 18.7491 130.646 18.3745 130.964 18.0895C131.286 17.8011 131.655 17.5923 132.073 17.4631C132.49 17.3305 132.93 17.2642 133.39 17.2642C133.695 17.2642 134.018 17.3007 134.36 17.3736C134.704 17.4432 135.026 17.5724 135.324 17.7614C135.626 17.9503 135.873 18.2204 136.065 18.5717C136.257 18.9197 136.353 19.3722 136.353 19.929V25H134.902V23.956H134.842C134.746 24.1482 134.602 24.3371 134.409 24.5227C134.217 24.7083 133.97 24.8625 133.669 24.9851C133.367 25.1077 133.006 25.169 132.585 25.169ZM132.908 23.9759C133.319 23.9759 133.67 23.8946 133.962 23.7322C134.257 23.5698 134.481 23.3577 134.633 23.0959C134.789 22.8307 134.867 22.5473 134.867 22.2457V21.2614C134.814 21.3144 134.711 21.3641 134.559 21.4105C134.409 21.4536 134.239 21.4917 134.047 21.5249C133.854 21.5547 133.667 21.5829 133.485 21.6094C133.302 21.6326 133.15 21.6525 133.027 21.669C132.739 21.7055 132.475 21.7668 132.237 21.853C132.002 21.9392 131.813 22.0634 131.67 22.2259C131.531 22.3849 131.461 22.5971 131.461 22.8622C131.461 23.2301 131.597 23.5085 131.869 23.6974C132.141 23.883 132.487 23.9759 132.908 23.9759ZM139.82 20.4659V25H138.333V17.3636H139.76V18.6065H139.855C140.03 18.2022 140.305 17.8774 140.68 17.6321C141.058 17.3868 141.533 17.2642 142.107 17.2642C142.627 17.2642 143.083 17.3736 143.474 17.5923C143.865 17.8078 144.168 18.1293 144.384 18.5568C144.599 18.9844 144.707 19.513 144.707 20.1428V25H143.22V20.3217C143.22 19.7682 143.076 19.3357 142.788 19.0241C142.499 18.7093 142.103 18.5518 141.6 18.5518C141.255 18.5518 140.948 18.6264 140.68 18.7756C140.415 18.9247 140.204 19.1435 140.048 19.4318C139.896 19.7169 139.82 20.0616 139.82 20.4659ZM149.917 25.1541C149.178 25.1541 148.542 24.9867 148.008 24.652C147.478 24.3139 147.07 23.8482 146.785 23.255C146.5 22.6617 146.357 21.9822 146.357 21.2166C146.357 20.4411 146.503 19.7566 146.795 19.1634C147.087 18.5668 147.498 18.1011 148.028 17.7663C148.558 17.4316 149.183 17.2642 149.902 17.2642C150.482 17.2642 150.999 17.3719 151.453 17.5874C151.907 17.7995 152.274 18.0978 152.552 18.4822C152.834 18.8667 153.001 19.3158 153.054 19.8295H151.607C151.528 19.4716 151.346 19.1634 151.061 18.9048C150.779 18.6463 150.401 18.517 149.927 18.517C149.513 18.517 149.15 18.6264 148.838 18.8452C148.53 19.0606 148.29 19.3688 148.117 19.7699C147.945 20.1676 147.859 20.6383 147.859 21.1818C147.859 21.7386 147.943 22.2192 148.112 22.6236C148.281 23.0279 148.52 23.3411 148.828 23.5632C149.14 23.7853 149.506 23.8963 149.927 23.8963C150.209 23.8963 150.464 23.8449 150.693 23.7422C150.925 23.6361 151.119 23.4853 151.274 23.2898C151.433 23.0942 151.544 22.8589 151.607 22.5838H153.054C153.001 23.0777 152.84 23.5185 152.572 23.9062C152.303 24.294 151.944 24.599 151.493 24.821C151.046 25.0431 150.52 25.1541 149.917 25.1541ZM157.935 25.1541C157.183 25.1541 156.535 24.9934 155.991 24.6719C155.451 24.3471 155.033 23.8913 154.738 23.3047C154.447 22.7147 154.301 22.0237 154.301 21.2315C154.301 20.4493 154.447 19.7599 154.738 19.1634C155.033 18.5668 155.444 18.1011 155.971 17.7663C156.502 17.4316 157.121 17.2642 157.831 17.2642C158.261 17.2642 158.679 17.3355 159.083 17.478C159.488 17.6205 159.851 17.8442 160.172 18.1491C160.494 18.4541 160.747 18.8501 160.933 19.3374C161.118 19.8213 161.211 20.4096 161.211 21.1023V21.6293H155.141V20.5156H159.755C159.755 20.1245 159.675 19.7782 159.516 19.4766C159.357 19.1716 159.133 18.9313 158.845 18.7557C158.56 18.58 158.225 18.4922 157.841 18.4922C157.423 18.4922 157.058 18.5949 156.747 18.8004C156.439 19.0026 156.2 19.2678 156.031 19.5959C155.865 19.9207 155.782 20.2737 155.782 20.6548V21.5249C155.782 22.0353 155.872 22.4695 156.051 22.8274C156.233 23.1854 156.487 23.4588 156.811 23.6477C157.136 23.8333 157.516 23.9261 157.95 23.9261C158.232 23.9261 158.489 23.8864 158.721 23.8068C158.953 23.724 159.153 23.6013 159.322 23.4389C159.491 23.2765 159.62 23.076 159.71 22.8374L161.117 23.0909C161.004 23.5052 160.802 23.8681 160.51 24.1797C160.222 24.4879 159.859 24.7282 159.422 24.9006C158.987 25.0696 158.492 25.1541 157.935 25.1541Z" fill="#0052EA"/>
<defs>
<clipPath id="clip0_1304_204">
<rect width="24" height="24" fill="white" transform="translate(0 8)"/>
</clipPath>
</defs>
</svg>
