<svg width="162" height="40" viewBox="0 0 162 40" fill="none" xmlns="http://www.w3.org/2000/svg">
<g clip-path="url(#clip0_1304_209)">
<path d="M19 19.5V20.5C19 20.6326 18.9473 20.7598 18.8536 20.8536C18.7598 20.9473 18.6326 21 18.5 21H13V26.5C13 26.6326 12.9473 26.7598 12.8536 26.8536C12.7598 26.9473 12.6326 27 12.5 27H11.5C11.3674 27 11.2402 26.9473 11.1464 26.8536C11.0527 26.7598 11 26.6326 11 26.5V21H5.5C5.36739 21 5.24021 20.9473 5.14645 20.8536C5.05268 20.7598 5 20.6326 5 20.5V19.5C5 19.3674 5.05268 19.2402 5.14645 19.1464C5.24021 19.0527 5.36739 19 5.5 19H11V13.5C11 13.3674 11.0527 13.2402 11.1464 13.1464C11.2402 13.0527 11.3674 13 11.5 13H12.5C12.6326 13 12.7598 13.0527 12.8536 13.1464C12.9473 13.2402 13 13.3674 13 13.5V19H18.5C18.6326 19 18.7598 19.0527 18.8536 19.1464C18.9473 19.2402 19 19.3674 19 19.5Z" fill="#0052EA"/>
</g>
<path d="M29.9787 25H28.348L32.0121 14.8182H33.7869L37.451 25H35.8203L32.9418 16.6676H32.8622L29.9787 25ZM30.2521 21.0128H35.5419V22.3054H30.2521V21.0128ZM41.5376 25.1491C40.9212 25.1491 40.371 24.9917 39.8871 24.6768C39.4065 24.3587 39.0286 23.9062 38.7536 23.3196C38.4818 22.7296 38.3459 22.022 38.3459 21.1967C38.3459 20.3714 38.4834 19.6655 38.7585 19.0788C39.0369 18.4922 39.4181 18.0431 39.902 17.7315C40.3859 17.42 40.9344 17.2642 41.5476 17.2642C42.0215 17.2642 42.4027 17.3438 42.6911 17.5028C42.9827 17.6586 43.2081 17.8409 43.3672 18.0497C43.5296 18.2585 43.6555 18.4425 43.745 18.6016H43.8345V14.8182H45.321V25H43.8693V23.8118H43.745C43.6555 23.9742 43.5263 24.1598 43.3572 24.3686C43.1915 24.5774 42.9628 24.7597 42.6712 24.9155C42.3795 25.0713 42.0017 25.1491 41.5376 25.1491ZM41.8658 23.8814C42.2933 23.8814 42.6546 23.7687 42.9496 23.5433C43.2479 23.3146 43.4732 22.9981 43.6257 22.5938C43.7815 22.1894 43.8594 21.7187 43.8594 21.1818C43.8594 20.6515 43.7831 20.1875 43.6307 19.7898C43.4782 19.392 43.2545 19.0821 42.9595 18.8601C42.6645 18.638 42.3 18.527 41.8658 18.527C41.4183 18.527 41.0455 18.643 40.7472 18.875C40.4489 19.107 40.2235 19.4235 40.071 19.8246C39.9219 20.2256 39.8473 20.678 39.8473 21.1818C39.8473 21.6922 39.9235 22.1513 40.076 22.5589C40.2285 22.9666 40.4538 23.2898 40.7521 23.5284C41.0537 23.7637 41.425 23.8814 41.8658 23.8814ZM50.3013 25.1491C49.6848 25.1491 49.1346 24.9917 48.6507 24.6768C48.1702 24.3587 47.7923 23.9062 47.5172 23.3196C47.2454 22.7296 47.1096 22.022 47.1096 21.1967C47.1096 20.3714 47.2471 19.6655 47.5222 19.0788C47.8006 18.4922 48.1818 18.0431 48.6657 17.7315C49.1496 17.42 49.6981 17.2642 50.3113 17.2642C50.7852 17.2642 51.1664 17.3438 51.4547 17.5028C51.7464 17.6586 51.9718 17.8409 52.1309 18.0497C52.2933 18.2585 52.4192 18.4425 52.5087 18.6016H52.5982V14.8182H54.0847V25H52.633V23.8118H52.5087C52.4192 23.9742 52.29 24.1598 52.1209 24.3686C51.9552 24.5774 51.7265 24.7597 51.4348 24.9155C51.1432 25.0713 50.7653 25.1491 50.3013 25.1491ZM50.6294 23.8814C51.057 23.8814 51.4183 23.7687 51.7132 23.5433C52.0115 23.3146 52.2369 22.9981 52.3894 22.5938C52.5452 22.1894 52.623 21.7187 52.623 21.1818C52.623 20.6515 52.5468 20.1875 52.3944 19.7898C52.2419 19.392 52.0182 19.0821 51.7232 18.8601C51.4282 18.638 51.0636 18.527 50.6294 18.527C50.182 18.527 49.8091 18.643 49.5108 18.875C49.2125 19.107 48.9872 19.4235 48.8347 19.8246C48.6855 20.2256 48.611 20.678 48.611 21.1818C48.611 21.6922 48.6872 22.1513 48.8397 22.5589C48.9921 22.9666 49.2175 23.2898 49.5158 23.5284C49.8174 23.7637 50.1886 23.8814 50.6294 23.8814ZM68.2488 14.8182V25H66.8368L61.6614 17.5327H61.5669V25H60.0307V14.8182H61.4526L66.633 22.2955H66.7275V14.8182H68.2488ZM73.6616 25.1541C72.9092 25.1541 72.2612 24.9934 71.7177 24.6719C71.1774 24.3471 70.7598 23.8913 70.4648 23.3047C70.1732 22.7147 70.0273 22.0237 70.0273 21.2315C70.0273 20.4493 70.1732 19.7599 70.4648 19.1634C70.7598 18.5668 71.1708 18.1011 71.6978 17.7663C72.2281 17.4316 72.8479 17.2642 73.5572 17.2642C73.988 17.2642 74.4057 17.3355 74.81 17.478C75.2144 17.6205 75.5773 17.8442 75.8988 18.1491C76.2203 18.4541 76.4738 18.8501 76.6594 19.3374C76.8451 19.8213 76.9379 20.4096 76.9379 21.1023V21.6293H70.8675V20.5156H75.4812C75.4812 20.1245 75.4016 19.7782 75.2425 19.4766C75.0835 19.1716 74.8597 18.9313 74.5714 18.7557C74.2863 18.58 73.9516 18.4922 73.5671 18.4922C73.1495 18.4922 72.7849 18.5949 72.4734 18.8004C72.1651 19.0026 71.9265 19.2678 71.7575 19.5959C71.5917 19.9207 71.5089 20.2737 71.5089 20.6548V21.5249C71.5089 22.0353 71.5984 22.4695 71.7773 22.8274C71.9596 23.1854 72.2132 23.4588 72.538 23.6477C72.8628 23.8333 73.2423 23.9261 73.6765 23.9261C73.9582 23.9261 74.2151 23.8864 74.4471 23.8068C74.6791 23.724 74.8796 23.6013 75.0487 23.4389C75.2177 23.2765 75.3469 23.076 75.4364 22.8374L76.8434 23.0909C76.7307 23.5052 76.5285 23.8681 76.2369 24.1797C75.9485 24.4879 75.5856 24.7282 75.1481 24.9006C74.7139 25.0696 74.2184 25.1541 73.6616 25.1541ZM80.229 25L77.9819 17.3636H79.5181L81.0146 22.9716H81.0891L82.5906 17.3636H84.1268L85.6183 22.9467H85.6928L87.1793 17.3636H88.7156L86.4734 25H84.957L83.4059 19.4865H83.2915L81.7404 25H80.229ZM97.2468 25H93.9506V14.8182H97.3512C98.3488 14.8182 99.2056 15.022 99.9215 15.4297C100.637 15.834 101.186 16.4157 101.567 17.1747C101.952 17.9304 102.144 18.8369 102.144 19.8942C102.144 20.9548 101.95 21.8662 101.562 22.6286C101.178 23.3909 100.621 23.9775 99.8917 24.3885C99.1625 24.7962 98.2809 25 97.2468 25ZM95.4869 23.6577H97.1623C97.9379 23.6577 98.5825 23.5118 99.0962 23.2202C99.61 22.9252 99.9944 22.4993 100.25 21.9425C100.505 21.3823 100.632 20.6996 100.632 19.8942C100.632 19.0954 100.505 18.4176 100.25 17.8608C99.9978 17.304 99.6216 16.8814 99.1211 16.593C98.6206 16.3047 97.9992 16.1605 97.2567 16.1605H95.4869V23.6577ZM107.226 25.1541C106.474 25.1541 105.826 24.9934 105.282 24.6719C104.742 24.3471 104.324 23.8913 104.029 23.3047C103.738 22.7147 103.592 22.0237 103.592 21.2315C103.592 20.4493 103.738 19.7599 104.029 19.1634C104.324 18.5668 104.735 18.1011 105.262 17.7663C105.793 17.4316 106.412 17.2642 107.122 17.2642C107.552 17.2642 107.97 17.3355 108.374 17.478C108.779 17.6205 109.142 17.8442 109.463 18.1491C109.785 18.4541 110.038 18.8501 110.224 19.3374C110.41 19.8213 110.502 20.4096 110.502 21.1023V21.6293H104.432V20.5156H109.046C109.046 20.1245 108.966 19.7782 108.807 19.4766C108.648 19.1716 108.424 18.9313 108.136 18.7557C107.851 18.58 107.516 18.4922 107.132 18.4922C106.714 18.4922 106.349 18.5949 106.038 18.8004C105.73 19.0026 105.491 19.2678 105.322 19.5959C105.156 19.9207 105.073 20.2737 105.073 20.6548V21.5249C105.073 22.0353 105.163 22.4695 105.342 22.8274C105.524 23.1854 105.778 23.4588 106.102 23.6477C106.427 23.8333 106.807 23.9261 107.241 23.9261C107.523 23.9261 107.78 23.8864 108.012 23.8068C108.244 23.724 108.444 23.6013 108.613 23.4389C108.782 23.2765 108.911 23.076 109.001 22.8374L110.408 23.0909C110.295 23.5052 110.093 23.8681 109.801 24.1797C109.513 24.4879 109.15 24.7282 108.713 24.9006C108.278 25.0696 107.783 25.1541 107.226 25.1541ZM115.01 25.1491C114.394 25.1491 113.844 24.9917 113.36 24.6768C112.879 24.3587 112.501 23.9062 112.226 23.3196C111.954 22.7296 111.819 22.022 111.819 21.1967C111.819 20.3714 111.956 19.6655 112.231 19.0788C112.51 18.4922 112.891 18.0431 113.375 17.7315C113.859 17.42 114.407 17.2642 115.02 17.2642C115.494 17.2642 115.875 17.3438 116.164 17.5028C116.455 17.6586 116.681 17.8409 116.84 18.0497C117.002 18.2585 117.128 18.4425 117.218 18.6016H117.307V14.8182H118.794V25H117.342V23.8118H117.218C117.128 23.9742 116.999 24.1598 116.83 24.3686C116.664 24.5774 116.435 24.7597 116.144 24.9155C115.852 25.0713 115.474 25.1491 115.01 25.1491ZM115.338 23.8814C115.766 23.8814 116.127 23.7687 116.422 23.5433C116.721 23.3146 116.946 22.9981 117.098 22.5938C117.254 22.1894 117.332 21.7187 117.332 21.1818C117.332 20.6515 117.256 20.1875 117.103 19.7898C116.951 19.392 116.727 19.0821 116.432 18.8601C116.137 18.638 115.773 18.527 115.338 18.527C114.891 18.527 114.518 18.643 114.22 18.875C113.922 19.107 113.696 19.4235 113.544 19.8246C113.395 20.2256 113.32 20.678 113.32 21.1818C113.32 21.6922 113.396 22.1513 113.549 22.5589C113.701 22.9666 113.926 23.2898 114.225 23.5284C114.526 23.7637 114.898 23.8814 115.338 23.8814ZM125.753 21.8331V17.3636H127.244V25H125.782V23.6776H125.703C125.527 24.0852 125.246 24.425 124.858 24.6967C124.473 24.9652 123.994 25.0994 123.421 25.0994C122.93 25.0994 122.496 24.9917 122.118 24.7763C121.744 24.5575 121.449 24.2344 121.233 23.8068C121.021 23.3793 120.915 22.8506 120.915 22.2209V17.3636H122.402V22.0419C122.402 22.5623 122.546 22.9766 122.834 23.2848C123.123 23.593 123.497 23.7472 123.958 23.7472C124.236 23.7472 124.513 23.6776 124.788 23.5384C125.067 23.3991 125.297 23.1887 125.479 22.907C125.665 22.6252 125.756 22.2673 125.753 21.8331ZM132.458 25.1541C131.719 25.1541 131.083 24.9867 130.549 24.652C130.019 24.3139 129.611 23.8482 129.326 23.255C129.041 22.6617 128.898 21.9822 128.898 21.2166C128.898 20.4411 129.044 19.7566 129.336 19.1634C129.628 18.5668 130.039 18.1011 130.569 17.7663C131.099 17.4316 131.724 17.2642 132.443 17.2642C133.023 17.2642 133.54 17.3719 133.994 17.5874C134.448 17.7995 134.815 18.0978 135.093 18.4822C135.375 18.8667 135.542 19.3158 135.595 19.8295H134.148C134.069 19.4716 133.887 19.1634 133.602 18.9048C133.32 18.6463 132.942 18.517 132.468 18.517C132.054 18.517 131.691 18.6264 131.379 18.8452C131.071 19.0606 130.831 19.3688 130.658 19.7699C130.486 20.1676 130.4 20.6383 130.4 21.1818C130.4 21.7386 130.484 22.2192 130.653 22.6236C130.822 23.0279 131.061 23.3411 131.369 23.5632C131.681 23.7853 132.047 23.8963 132.468 23.8963C132.75 23.8963 133.005 23.8449 133.234 23.7422C133.466 23.6361 133.66 23.4853 133.815 23.2898C133.974 23.0942 134.085 22.8589 134.148 22.5838H135.595C135.542 23.0777 135.381 23.5185 135.113 23.9062C134.844 24.294 134.485 24.599 134.034 24.821C133.587 25.0431 133.061 25.1541 132.458 25.1541ZM140.749 17.3636V18.5568H136.578V17.3636H140.749ZM137.697 15.5341H139.183V22.7578C139.183 23.0462 139.227 23.2633 139.313 23.4091C139.399 23.5516 139.51 23.6494 139.646 23.7024C139.785 23.7521 139.936 23.777 140.098 23.777C140.218 23.777 140.322 23.7687 140.411 23.7521C140.501 23.7356 140.57 23.7223 140.62 23.7124L140.889 24.9403C140.802 24.9735 140.68 25.0066 140.521 25.0398C140.362 25.0762 140.163 25.0961 139.924 25.0994C139.533 25.1061 139.169 25.0365 138.83 24.8906C138.492 24.7448 138.219 24.5194 138.01 24.2145C137.801 23.9096 137.697 23.5268 137.697 23.0661V15.5341ZM142.394 25V17.3636H143.88V25H142.394ZM143.145 16.1854C142.886 16.1854 142.664 16.0992 142.478 15.9268C142.296 15.7512 142.205 15.5424 142.205 15.3004C142.205 15.0552 142.296 14.8464 142.478 14.674C142.664 14.4983 142.886 14.4105 143.145 14.4105C143.403 14.4105 143.623 14.4983 143.806 14.674C143.991 14.8464 144.084 15.0552 144.084 15.3004C144.084 15.5424 143.991 15.7512 143.806 15.9268C143.623 16.0992 143.403 16.1854 143.145 16.1854ZM149.097 25.1541C148.381 25.1541 147.756 24.9901 147.222 24.6619C146.689 24.3338 146.275 23.8748 145.98 23.2848C145.685 22.6948 145.537 22.0054 145.537 21.2166C145.537 20.4245 145.685 19.7318 145.98 19.1385C146.275 18.5452 146.689 18.0845 147.222 17.7564C147.756 17.4283 148.381 17.2642 149.097 17.2642C149.813 17.2642 150.437 17.4283 150.971 17.7564C151.505 18.0845 151.919 18.5452 152.214 19.1385C152.509 19.7318 152.656 20.4245 152.656 21.2166C152.656 22.0054 152.509 22.6948 152.214 23.2848C151.919 23.8748 151.505 24.3338 150.971 24.6619C150.437 24.9901 149.813 25.1541 149.097 25.1541ZM149.102 23.9062C149.566 23.9062 149.95 23.7836 150.255 23.5384C150.56 23.2931 150.785 22.9666 150.931 22.5589C151.08 22.1513 151.155 21.7022 151.155 21.2116C151.155 20.7244 151.08 20.277 150.931 19.8693C150.785 19.4583 150.56 19.1286 150.255 18.88C149.95 18.6314 149.566 18.5071 149.102 18.5071C148.634 18.5071 148.247 18.6314 147.938 18.88C147.633 19.1286 147.406 19.4583 147.257 19.8693C147.111 20.277 147.039 20.7244 147.039 21.2116C147.039 21.7022 147.111 22.1513 147.257 22.5589C147.406 22.9666 147.633 23.2931 147.938 23.5384C148.247 23.7836 148.634 23.9062 149.102 23.9062ZM155.802 20.4659V25H154.316V17.3636H155.743V18.6065H155.837C156.013 18.2022 156.288 17.8774 156.662 17.6321C157.04 17.3868 157.516 17.2642 158.089 17.2642C158.609 17.2642 159.065 17.3736 159.456 17.5923C159.847 17.8078 160.151 18.1293 160.366 18.5568C160.582 18.9844 160.689 19.513 160.689 20.1428V25H159.203V20.3217C159.203 19.7682 159.059 19.3357 158.77 19.0241C158.482 18.7093 158.086 18.5518 157.582 18.5518C157.237 18.5518 156.931 18.6264 156.662 18.7756C156.397 18.9247 156.187 19.1435 156.031 19.4318C155.878 19.7169 155.802 20.0616 155.802 20.4659Z" fill="#0052EA"/>
<defs>
<clipPath id="clip0_1304_209">
<rect width="24" height="24" fill="white" transform="translate(0 8)"/>
</clipPath>
</defs>
</svg>
